# xmcd
#
# Track frame offsets:
#	150
#	17793
#	34564
#	51374
#	68329
#	83578
#	96962
#	111702
#	129519
#	143573
#	161067
#	177772
#	193035
#	209859
#	226246
#	243305
#	257917
#	275045
#	290159
#	305902
#
# Disc length: 4276 seconds
#
# Revision: 3
# Processed by: cddbd v1.5.2PL0 Copyright (c) Steve Scherf et al.
# Submitted via: audiograbber 1.83.01
#
DISCID=3010b214
DTITLE=Various Artist - Bravo Hits 31 CD2
DYEAR=2000
DGENRE=Pop
TTITLE0=Craig David - 7 Days
TTITLE1=Spille - Groovejet (If This Ain´t Love)
TTITLE2=Music Instructor Feat. Dean - Super Fly (Upper MC)
TTITLE3=Darude - Sandstorm
TTITLE4=Mauro Picotto - Komodo/Save A Soul
TTITLE5=Elektochemie LK - Schall
TTITLE6=Future Breeze - Smile
TTITLE7=Delerium Feat. Sarah McLachlan - Silence
TTITLE8=X-Perience - Island Of Dreams
TTITLE9=Baby D. - Let Be Me Your Fantasy
TTITLE10=Modjo - Lady (Hear Me Tonight)
TTITLE11=Lace - Ring Ring
TTITLE12=ATB Feat. York - The Fields Of Love
TTITLE13=Rollergirl - Superstar
TTITLE14=Cherubia - Devil In Disguise
TTITLE15=Bomfunk Mc's - B-Boys and Fly Girls
TTITLE16=Dynamite Deluxe - Grüne Brille
TTITLE17=Papa Roach - Last Resort
TTITLE18=Die Toten Hosen - Warum werde ich nicht satt?
TTITLE19=Stefan Raab Feat. DJ Bundeskanzler - Ho mir ma ne Flasche Bier
EXTD=
EXTT0=
EXTT1=
EXTT2=
EXTT3=
EXTT4=
EXTT5=
EXTT6=
EXTT7=
EXTT8=
EXTT9=
EXTT10=
EXTT11=
EXTT12=
EXTT13=
EXTT14=
EXTT15=
EXTT16=
EXTT17=
EXTT18=
EXTT19=
PLAYORDER=
